<?xml version="1.0" encoding="utf-8"?>
<!-- Generator: Adobe Illustrator 25.4.1, SVG Export Plug-In . SVG Version: 6.00 Build 0)  -->
<svg version="1.1" id="ELEMENTS" xmlns="http://www.w3.org/2000/svg" xmlns:xlink="http://www.w3.org/1999/xlink" x="0px" y="0px"
	 viewBox="0 0 58.9 58.9" style="enable-background:new 0 0 58.9 58.9;" xml:space="preserve">
<style type="text/css">
	.st0{fill:#FFFFFF;}
</style>
<rect class="st0" width="58.9" height="58.9"/>
<g>
	<g>
		<path d="M38.2,18.7c-1.1,0-1.9,0.9-1.9,1.9c0,1.1,0.9,1.9,1.9,1.9c1.1,0,1.9-0.9,1.9-1.9C40.2,19.6,39.3,18.7,38.2,18.7z"/>
		<path d="M29.6,21.2c-4.5,0-8.2,3.7-8.2,8.2c0,4.5,3.7,8.2,8.2,8.2c4.5,0,8.2-3.7,8.2-8.2C37.8,24.9,34.1,21.2,29.6,21.2z
			 M29.6,34.7c-2.9,0-5.2-2.4-5.2-5.2c0-2.9,2.4-5.2,5.2-5.2c2.9,0,5.2,2.4,5.2,5.2C34.8,32.3,32.5,34.7,29.6,34.7z"/>
		<path d="M36.1,46.1H22.8c-5.5,0-10-4.5-10-10V22.8c0-5.5,4.5-10,10-10h13.3c5.5,0,10,4.5,10,10v13.3
			C46.1,41.6,41.6,46.1,36.1,46.1z M22.8,15.9c-3.8,0-6.9,3.1-6.9,6.9v13.3c0,3.8,3.1,6.9,6.9,6.9h13.3c3.8,0,6.9-3.1,6.9-6.9V22.8
			c0-3.8-3.1-6.9-6.9-6.9H22.8z"/>
	</g>
</g>
</svg>
