<?xml version="1.0" encoding="utf-8"?>
<!-- Generator: Adobe Illustrator 25.4.1, SVG Export Plug-In . SVG Version: 6.00 Build 0)  -->
<svg version="1.1" id="ELEMENTS" xmlns="http://www.w3.org/2000/svg" xmlns:xlink="http://www.w3.org/1999/xlink" x="0px" y="0px"
	 viewBox="0 0 58.9 58.9" style="enable-background:new 0 0 58.9 58.9;" xml:space="preserve">
<style type="text/css">
	.st0{fill:#FFFFFF;}
	.st1{fill-rule:evenodd;clip-rule:evenodd;fill:#FFFFFF;}
</style>
<g>
	<path class="st0" d="M5.1,53.8l3.5-13c-2-3.6-3-7.6-3-11.6c0-13.3,10.8-24.1,24.1-24.1c13.3,0,24.1,10.8,24.1,24.1
		c0,13.3-10.8,24.1-24.1,24.1c-4,0-7.9-1-11.4-2.9L5.1,53.8z M18.9,45.4l0.8,0.5c3,1.8,6.5,2.8,10,2.8c10.8,0,19.5-8.7,19.5-19.5
		c0-10.8-8.8-19.5-19.5-19.5c-10.8,0-19.5,8.7-19.5,19.5c0,3.6,1,7,2.9,10.1l0.5,0.8l-1.9,7.3L18.9,45.4z"/>
	<path class="st1" d="M38.6,32.5c-1-0.6-2.3-1.3-3.4-0.8c-0.9,0.4-1.5,1.8-2,2.5c-0.3,0.4-0.7,0.4-1.1,0.2c-3.4-1.3-5.9-3.6-7.8-6.7
		c-0.3-0.5-0.3-0.9,0.1-1.3c0.6-0.7,1.3-1.4,1.4-2.3c0.2-0.9-0.3-1.9-0.6-2.7c-0.5-1-1-2.5-2-3c-0.9-0.5-2.2-0.2-3,0.4
		c-1.4,1.2-2.1,3-2.1,4.8c0,0.5,0.1,1,0.2,1.5c0.3,1.2,0.8,2.3,1.5,3.4c0.5,0.8,1,1.6,1.5,2.3c1.8,2.4,4,4.6,6.6,6.1
		c1.3,0.8,2.7,1.5,4.1,2c1.6,0.5,3.1,1.1,4.8,0.8c1.8-0.3,3.6-1.5,4.4-3.2c0.2-0.5,0.3-1.1,0.2-1.7C41.1,33.7,39.5,33,38.6,32.5z"/>
</g>
</svg>
