<?xml version="1.0" encoding="utf-8"?>
<!-- Generator: Adobe Illustrator 25.4.1, SVG Export Plug-In . SVG Version: 6.00 Build 0)  -->
<svg version="1.1" id="Camada_1" xmlns="http://www.w3.org/2000/svg" xmlns:xlink="http://www.w3.org/1999/xlink" x="0px" y="0px"
	 viewBox="0 0 358.1 95.3" style="enable-background:new 0 0 358.1 95.3;" xml:space="preserve">
<style type="text/css">
	.st0{fill:url(#SVGID_1_);}
	.st1{fill:url(#SVGID_00000056392901740411996540000008569770822599980162_);}
	.st2{fill:url(#SVGID_00000061434784929041449030000012167975419454004138_);}
	.st3{fill:url(#SVGID_00000124120411599357944670000015271648726305173178_);}
	.st4{fill:url(#SVGID_00000069358277256715491000000018282620258020019606_);}
	.st5{fill:url(#SVGID_00000124850532881043615100000004081062860150784394_);}
	.st6{fill:url(#SVGID_00000119096693964591540850000000041452325585334179_);}
	.st7{fill:url(#SVGID_00000057869892199729646120000015319928452619858359_);}
	.st8{fill:url(#SVGID_00000037692233809196185980000012488957490906322062_);}
	.st9{fill:url(#SVGID_00000183938527715024964370000006289867771295117485_);}
	.st10{fill:url(#SVGID_00000076606152575470326620000016790191830314137267_);}
	.st11{fill:url(#SVGID_00000071520429290431390600000011038253935188922301_);}
	.st12{fill:url(#SVGID_00000015342396189717504180000009836501257742572169_);}
</style>
<g>
	<g>
		<linearGradient id="SVGID_1_" gradientUnits="userSpaceOnUse" x1="7.2552" y1="84.713" x2="375.419" y2="5.2415">
			<stop  offset="0" style="stop-color:#9D9D9C"/>
			<stop  offset="0.5333" style="stop-color:#FFFFFF"/>
			<stop  offset="1" style="stop-color:#9D9D9C"/>
		</linearGradient>
		<path class="st0" d="M340.8,84.8H17.3V10.5h323.5V84.8z M21.7,80.4h314.8V14.8H21.7V80.4z"/>
	</g>
	<g>
		
			<linearGradient id="SVGID_00000080201592684644851520000018076827812924892856_" gradientUnits="userSpaceOnUse" x1="1.8627" y1="59.7314" x2="370.0265" y2="-19.7401">
			<stop  offset="0" style="stop-color:#9D9D9C"/>
			<stop  offset="0.5333" style="stop-color:#FFFFFF"/>
			<stop  offset="1" style="stop-color:#9D9D9C"/>
		</linearGradient>
		<path style="fill:url(#SVGID_00000080201592684644851520000018076827812924892856_);" d="M77.2,33.2V62h-6.6V42L58,57.4h-0.3
			L45,42v20h-6.4V33.2h7.2L58,48.5l12.2-15.2H77.2z"/>
		
			<linearGradient id="SVGID_00000081613393935195591940000016846168880888101301_" gradientUnits="userSpaceOnUse" x1="4.9189" y1="73.8898" x2="373.0827" y2="-5.5817">
			<stop  offset="0" style="stop-color:#9D9D9C"/>
			<stop  offset="0.5333" style="stop-color:#FFFFFF"/>
			<stop  offset="1" style="stop-color:#9D9D9C"/>
		</linearGradient>
		<path style="fill:url(#SVGID_00000081613393935195591940000016846168880888101301_);" d="M148.7,38.9h-12.6V62h-6.6V38.9H117v-5.7
			h31.6V38.9z"/>
		
			<linearGradient id="SVGID_00000052791265688637880590000002953589405348946318_" gradientUnits="userSpaceOnUse" x1="6.9131" y1="83.128" x2="375.0768" y2="3.6565">
			<stop  offset="0" style="stop-color:#9D9D9C"/>
			<stop  offset="0.5333" style="stop-color:#FFFFFF"/>
			<stop  offset="1" style="stop-color:#9D9D9C"/>
		</linearGradient>
		<path style="fill:url(#SVGID_00000052791265688637880590000002953589405348946318_);" d="M172.4,55.9H155l-3.1,6.1h-7l15.2-28.8
			h7.2L182.6,62h-7.1L172.4,55.9z M169.6,50.6l-6-11.7l-6,11.7H169.6z"/>
		
			<linearGradient id="SVGID_00000039106357158541008490000008018721468325572490_" gradientUnits="userSpaceOnUse" x1="12.5206" y1="109.1058" x2="380.6844" y2="29.6343">
			<stop  offset="0" style="stop-color:#9D9D9C"/>
			<stop  offset="0.5333" style="stop-color:#FFFFFF"/>
			<stop  offset="1" style="stop-color:#9D9D9C"/>
		</linearGradient>
		<path style="fill:url(#SVGID_00000039106357158541008490000008018721468325572490_);" d="M319.4,36.4h-13.6V62h-3.5V36.4h-13.6
			v-3.1h30.6V36.4z"/>
		<g>
			
				<linearGradient id="SVGID_00000176752582006211523150000009829020993825323918_" gradientUnits="userSpaceOnUse" x1="1.5229" y1="58.1571" x2="369.6866" y2="-21.3144">
				<stop  offset="0" style="stop-color:#9D9D9C"/>
				<stop  offset="0.5333" style="stop-color:#FFFFFF"/>
				<stop  offset="1" style="stop-color:#9D9D9C"/>
			</linearGradient>
			
				<rect x="94.2" y="33.2" style="fill:url(#SVGID_00000176752582006211523150000009829020993825323918_);" width="19.9" height="5.5"/>
			
				<linearGradient id="SVGID_00000007394486283734935820000010450844056481456309_" gradientUnits="userSpaceOnUse" x1="3.7958" y1="68.6868" x2="371.9596" y2="-10.7847">
				<stop  offset="0" style="stop-color:#9D9D9C"/>
				<stop  offset="0.5333" style="stop-color:#FFFFFF"/>
				<stop  offset="1" style="stop-color:#9D9D9C"/>
			</linearGradient>
			
				<rect x="94.2" y="44.7" style="fill:url(#SVGID_00000007394486283734935820000010450844056481456309_);" width="16.2" height="5.5"/>
			
				<linearGradient id="SVGID_00000070114820728485838110000011096963610861327018_" gradientUnits="userSpaceOnUse" x1="6.3291" y1="80.4225" x2="374.4929" y2="0.951">
				<stop  offset="0" style="stop-color:#9D9D9C"/>
				<stop  offset="0.5333" style="stop-color:#FFFFFF"/>
				<stop  offset="1" style="stop-color:#9D9D9C"/>
			</linearGradient>
			
				<rect x="94.2" y="56.5" style="fill:url(#SVGID_00000070114820728485838110000011096963610861327018_);" width="20.3" height="5.5"/>
			
				<linearGradient id="SVGID_00000031192941947159819550000002215023978771304867_" gradientUnits="userSpaceOnUse" x1="3.2093" y1="65.9696" x2="371.373" y2="-13.5019">
				<stop  offset="0" style="stop-color:#9D9D9C"/>
				<stop  offset="0.5333" style="stop-color:#FFFFFF"/>
				<stop  offset="1" style="stop-color:#9D9D9C"/>
			</linearGradient>
			<polygon style="fill:url(#SVGID_00000031192941947159819550000002215023978771304867_);" points="91.4,56.5 91.4,56.5 91.4,50.2 
				91.4,50.2 91.4,44.7 91.4,44.7 91.4,38.8 91.4,38.8 91.4,33.2 84.9,33.2 84.9,62 91.4,62 			"/>
		</g>
		<g>
			
				<linearGradient id="SVGID_00000006691010836747248010000000362497805010928277_" gradientUnits="userSpaceOnUse" x1="10.746" y1="100.8846" x2="378.9098" y2="21.4131">
				<stop  offset="0" style="stop-color:#9D9D9C"/>
				<stop  offset="0.5333" style="stop-color:#FFFFFF"/>
				<stop  offset="1" style="stop-color:#9D9D9C"/>
			</linearGradient>
			<polygon style="fill:url(#SVGID_00000006691010836747248010000000362497805010928277_);" points="259.2,47.8 259.2,47.8 
				259.2,36.5 259.2,36.5 259.2,33.2 255.7,33.2 255.7,62 259.2,62 			"/>
			
				<linearGradient id="SVGID_00000102509632187654758540000007827099290207840906_" gradientUnits="userSpaceOnUse" x1="11.5029" y1="104.3912" x2="379.6667" y2="24.9197">
				<stop  offset="0" style="stop-color:#9D9D9C"/>
				<stop  offset="0.5333" style="stop-color:#FFFFFF"/>
				<stop  offset="1" style="stop-color:#9D9D9C"/>
			</linearGradient>
			<path style="fill:url(#SVGID_00000102509632187654758540000007827099290207840906_);" d="M277.1,50.9c5.3-0.6,8.9-3.7,8.9-8.8
				c0-5.7-4.6-8.9-11-8.9H262v3.2h12.8c4.6,0,7.7,1.8,7.7,5.7c0,3.9-3.1,5.7-7.7,5.7H262V51h11l9.5,11h4.5L277.1,50.9z"/>
		</g>
		
			<linearGradient id="SVGID_00000168092424623622127470000017346230518470465435_" gradientUnits="userSpaceOnUse" x1="8.166" y1="88.9324" x2="376.3298" y2="9.4609">
			<stop  offset="0" style="stop-color:#9D9D9C"/>
			<stop  offset="0.5333" style="stop-color:#FFFFFF"/>
			<stop  offset="1" style="stop-color:#9D9D9C"/>
		</linearGradient>
		<polygon style="fill:url(#SVGID_00000168092424623622127470000017346230518470465435_);" points="210.4,56.3 193.1,56.3 
			193.1,33.2 186.5,33.2 186.5,62 212.5,62 		"/>
		
			<linearGradient id="SVGID_00000163046179113352541930000004136561425185533333_" gradientUnits="userSpaceOnUse" x1="9.9894" y1="97.3797" x2="378.1532" y2="17.9082">
			<stop  offset="0" style="stop-color:#9D9D9C"/>
			<stop  offset="0.5333" style="stop-color:#FFFFFF"/>
			<stop  offset="1" style="stop-color:#9D9D9C"/>
		</linearGradient>
		<path style="fill:url(#SVGID_00000163046179113352541930000004136561425185533333_);" d="M234.5,33.2h-3.9l-13,23.7l1.6,4.1
			l3.7-6.7h19.4l4.2,7.7h3.9L234.5,33.2z M224.5,51.2l8-14.8l8,14.8H224.5z"/>
	</g>
</g>
</svg>
